<?xml version="1.0" encoding="UTF-8" standalone="no"?>
<!-- License Agreement at http://iconmonstr.com/license/ -->

<svg
   xmlns:dc="http://purl.org/dc/elements/1.1/"
   xmlns:cc="http://creativecommons.org/ns#"
   xmlns:rdf="http://www.w3.org/1999/02/22-rdf-syntax-ns#"
   xmlns:svg="http://www.w3.org/2000/svg"
   xmlns="http://www.w3.org/2000/svg"
   xmlns:sodipodi="http://sodipodi.sourceforge.net/DTD/sodipodi-0.dtd"
   xmlns:inkscape="http://www.inkscape.org/namespaces/inkscape"
   version="1.1"
   x="0px"
   y="0px"
   width="512px"
   height="512px"
   viewBox="0 0 512 512"
   enable-background="new 0 0 512 512"
   xml:space="preserve"
   id="svg3470"
   inkscape:version="0.48.2 r9819"
   sodipodi:docname="ff05x.svg"><metadata
   id="metadata3477"><rdf:RDF><cc:Work
       rdf:about=""><dc:format>image/svg+xml</dc:format><dc:type
         rdf:resource="http://purl.org/dc/dcmitype/StillImage" /><dc:title /></cc:Work></rdf:RDF></metadata><defs
   id="defs3475" /><sodipodi:namedview
   pagecolor="#ffffff"
   bordercolor="#666666"
   borderopacity="1"
   objecttolerance="10"
   gridtolerance="10"
   guidetolerance="10"
   inkscape:pageopacity="0"
   inkscape:pageshadow="2"
   inkscape:window-width="1276"
   inkscape:window-height="756"
   id="namedview3473"
   showgrid="false"
   inkscape:zoom="1"
   inkscape:cx="256"
   inkscape:cy="256"
   inkscape:window-x="4"
   inkscape:window-y="0"
   inkscape:window-maximized="1"
   inkscape:current-layer="svg3470" />
<path
   style="fill:#cccccc"
   d="M 256 50 C 142.229 50 50 142.229 50 256 C 50 369.771 142.229 462 256 462 C 369.771 462 462 369.771 462 256 C 462 142.229 369.771 50 256 50 z M 159.09375 166.28125 L 288.875 256 L 159.09375 345.71875 L 159.09375 166.28125 z M 261.15625 166.28125 L 390.90625 256 L 261.15625 345.71875 L 261.15625 305.8125 C 298.40825 280.0595 333.1875 256 333.1875 256 C 333.1875 256 298.40825 231.9395 261.15625 206.1875 L 261.15625 166.28125 z M 175.375 350.40625 C 183.2073 350.40632 189.33737 353.19204 193.75 358.78125 C 199.00827 365.40019 201.62495 376.38506 201.625 391.71875 C 201.62495 407.01574 198.98255 417.99511 193.6875 424.6875 C 189.31165 430.20323 183.2073 432.96875 175.375 432.96875 C 167.50589 432.96875 161.16081 429.93678 156.34375 423.90625 C 151.52666 417.83896 149.125 407.04887 149.125 391.53125 C 149.125 376.30791 151.76739 365.34874 157.0625 358.65625 C 161.4383 353.14061 167.54265 350.40632 175.375 350.40625 z M 284.09375 350.71875 L 303.1875 350.71875 L 319.40625 376.71875 L 335.28125 350.71875 L 354.1875 350.71875 L 329.0625 390 L 356.6875 431.59375 L 337 431.59375 L 319.0625 403.625 L 301.09375 431.59375 L 281.5 431.59375 L 309.125 389.375 L 284.09375 350.71875 z M 233.4375 351.8125 L 274.4375 351.8125 L 274.4375 366.34375 L 245.1875 366.34375 L 242.78125 380.0625 C 246.23775 378.3343 249.77136 377.46879 253.375 377.46875 C 260.25124 377.46879 266.0634 379.96787 270.84375 384.96875 C 275.624 389.96973 278.03118 396.45811 278.03125 404.4375 C 278.03118 411.09316 276.0797 417.02847 272.21875 422.25 C 266.96036 429.38368 259.68367 432.96875 250.34375 432.96875 C 242.87912 432.96875 236.76923 430.94558 232.0625 426.9375 C 227.35574 422.92941 224.54428 417.54724 223.625 410.78125 L 239.09375 409.1875 C 239.53498 412.68083 240.83047 415.47205 243 417.53125 C 245.16951 419.5537 247.66858 420.5625 250.5 420.5625 C 253.73587 420.5625 256.47565 419.23579 258.71875 416.625 C 260.96178 413.97745 262.09371 410.01387 262.09375 404.71875 C 262.09371 399.7546 260.96178 396.05748 258.71875 393.59375 C 256.51243 391.09333 253.6293 389.8438 250.0625 389.84375 C 245.61313 389.8438 241.62379 391.78425 238.09375 395.71875 L 225.5 393.90625 L 233.4375 351.8125 z M 175.375 363.25 C 173.49964 363.25007 171.84584 363.84912 170.375 365.0625 C 168.90412 366.23926 167.74645 368.38002 166.9375 371.46875 C 165.87109 375.47691 165.34373 382.23174 165.34375 391.71875 C 165.34373 401.20583 165.82519 407.71443 166.78125 411.28125 C 167.73731 414.81134 168.9409 417.16706 170.375 418.34375 C 171.84584 419.52044 173.49964 420.125 175.375 420.125 C 177.25034 420.125 178.93535 419.52044 180.40625 418.34375 C 181.87707 417.1303 183.0035 414.99508 183.8125 411.90625 C 184.87884 407.93494 185.43746 401.20583 185.4375 391.71875 C 185.43746 382.23174 184.95604 375.71763 184 372.1875 C 183.04392 368.62071 181.81457 366.23926 180.34375 365.0625 C 178.90963 363.84912 177.25034 363.25007 175.375 363.25 z M 203.375 416.09375 L 218.875 416.09375 L 218.875 431.59375 L 203.375 431.59375 L 203.375 416.09375 z "
   id="fast-forward-6-icon" />
</svg>