<?xml version="1.0" encoding="UTF-8" standalone="no"?>
<!-- License Agreement at http://iconmonstr.com/license/ -->

<svg
   xmlns:dc="http://purl.org/dc/elements/1.1/"
   xmlns:cc="http://creativecommons.org/ns#"
   xmlns:rdf="http://www.w3.org/1999/02/22-rdf-syntax-ns#"
   xmlns:svg="http://www.w3.org/2000/svg"
   xmlns="http://www.w3.org/2000/svg"
   xmlns:sodipodi="http://sodipodi.sourceforge.net/DTD/sodipodi-0.dtd"
   xmlns:inkscape="http://www.inkscape.org/namespaces/inkscape"
   version="1.1"
   x="0px"
   y="0px"
   width="512px"
   height="512px"
   viewBox="0 0 512 512"
   enable-background="new 0 0 512 512"
   xml:space="preserve"
   id="svg3470"
   inkscape:version="0.48.2 r9819"
   sodipodi:docname="ff3x.svg"><metadata
   id="metadata3477"><rdf:RDF><cc:Work
       rdf:about=""><dc:format>image/svg+xml</dc:format><dc:type
         rdf:resource="http://purl.org/dc/dcmitype/StillImage" /><dc:title /></cc:Work></rdf:RDF></metadata><defs
   id="defs3475" /><sodipodi:namedview
   pagecolor="#ffffff"
   bordercolor="#666666"
   borderopacity="1"
   objecttolerance="10"
   gridtolerance="10"
   guidetolerance="10"
   inkscape:pageopacity="0"
   inkscape:pageshadow="2"
   inkscape:window-width="1276"
   inkscape:window-height="756"
   id="namedview3473"
   showgrid="false"
   inkscape:zoom="1"
   inkscape:cx="256"
   inkscape:cy="256"
   inkscape:window-x="4"
   inkscape:window-y="0"
   inkscape:window-maximized="1"
   inkscape:current-layer="svg3470" />
<path
   style="fill:#cccccc"
   d="M 256 50 C 142.229 50 50 142.229 50 256 C 50 369.771 142.229 462 256 462 C 369.771 462 462 369.771 462 256 C 462 142.229 369.771 50 256 50 z M 159.09375 166.28125 L 288.875 256 L 159.09375 345.71875 L 159.09375 166.28125 z M 261.15625 166.28125 L 390.90625 256 L 261.15625 345.71875 L 261.15625 305.8125 C 298.40825 280.0595 333.1875 256 333.1875 256 C 333.1875 256 298.40825 231.9395 261.15625 206.1875 L 261.15625 166.28125 z M 212.03125 355.3125 C 220.58008 355.31259 227.43134 358.04863 232.59375 363.5 C 236.84748 367.96036 238.96869 372.97717 238.96875 378.59375 C 238.96869 386.5645 234.62026 392.93818 225.90625 397.6875 C 231.10986 398.80262 235.24627 401.30545 238.34375 405.1875 C 241.4824 409.06964 243.06243 413.75728 243.0625 419.25 C 243.06243 427.22071 240.13558 434.00836 234.3125 439.625 C 228.4893 445.24165 221.26648 448.0625 212.59375 448.0625 C 204.37524 448.0625 197.53514 445.70808 192.125 441 C 186.71483 436.25064 183.58602 430.04657 182.71875 422.40625 L 199.5625 420.34375 C 200.09936 424.63886 201.55219 427.94733 203.90625 430.21875 C 206.26026 432.4902 209.12351 433.62501 212.46875 433.625 C 216.06172 433.62501 219.06332 432.25699 221.5 429.53125 C 223.97789 426.80554 225.2187 423.1255 225.21875 418.5 C 225.2187 414.12235 224.04149 410.65432 221.6875 408.09375 C 219.33342 405.53326 216.44897 404.25004 213.0625 404.25 C 210.83233 404.25004 208.19114 404.69526 205.09375 405.5625 L 207 391.375 C 211.70804 391.49895 215.30328 390.49135 217.78125 388.34375 C 220.25914 386.15497 221.49996 383.24932 221.5 379.65625 C 221.49996 376.6002 220.59836 374.16097 218.78125 372.34375 C 216.96406 370.52667 214.54603 369.62508 211.53125 369.625 C 208.5577 369.62508 206.01247 370.65388 203.90625 372.71875 C 201.79998 374.78377 200.51677 377.78537 200.0625 381.75 L 184.03125 379.03125 C 185.14631 373.53857 186.8011 369.16894 189.03125 365.90625 C 191.30268 362.60242 194.46274 360.01479 198.46875 358.15625 C 202.51602 356.25659 207.03405 355.31259 212.03125 355.3125 z M 251.46875 355.6875 L 272.90625 355.6875 L 291.125 384.875 L 308.96875 355.6875 L 330.21875 355.6875 L 301.96875 399.78125 L 333 446.5 L 310.90625 446.5 L 290.75 415.09375 L 270.5625 446.5 L 248.5625 446.5 L 279.59375 399.09375 L 251.46875 355.6875 z "
   id="fast-forward-6-icon" />
</svg>