<?xml version="1.0" encoding="UTF-8" standalone="no"?>
<!-- License Agreement at http://iconmonstr.com/license/ -->

<svg
   xmlns:dc="http://purl.org/dc/elements/1.1/"
   xmlns:cc="http://creativecommons.org/ns#"
   xmlns:rdf="http://www.w3.org/1999/02/22-rdf-syntax-ns#"
   xmlns:svg="http://www.w3.org/2000/svg"
   xmlns="http://www.w3.org/2000/svg"
   xmlns:sodipodi="http://sodipodi.sourceforge.net/DTD/sodipodi-0.dtd"
   xmlns:inkscape="http://www.inkscape.org/namespaces/inkscape"
   version="1.1"
   x="0px"
   y="0px"
   width="512px"
   height="512px"
   viewBox="0 0 512 512"
   enable-background="new 0 0 512 512"
   xml:space="preserve"
   id="svg3470"
   inkscape:version="0.48.2 r9819"
   sodipodi:docname="ff4x.svg"><metadata
   id="metadata3477"><rdf:RDF><cc:Work
       rdf:about=""><dc:format>image/svg+xml</dc:format><dc:type
         rdf:resource="http://purl.org/dc/dcmitype/StillImage" /><dc:title /></cc:Work></rdf:RDF></metadata><defs
   id="defs3475" /><sodipodi:namedview
   pagecolor="#ffffff"
   bordercolor="#666666"
   borderopacity="1"
   objecttolerance="10"
   gridtolerance="10"
   guidetolerance="10"
   inkscape:pageopacity="0"
   inkscape:pageshadow="2"
   inkscape:window-width="1276"
   inkscape:window-height="756"
   id="namedview3473"
   showgrid="false"
   inkscape:zoom="1"
   inkscape:cx="256"
   inkscape:cy="256"
   inkscape:window-x="4"
   inkscape:window-y="0"
   inkscape:window-maximized="1"
   inkscape:current-layer="svg3470" />
<path
   style="fill:#cccccc"
   d="M 256 50 C 142.229 50 50 142.229 50 256 C 50 369.771 142.229 462 256 462 C 369.771 462 462 369.771 462 256 C 462 142.229 369.771 50 256 50 z M 159.09375 166.28125 L 288.875 256 L 159.09375 345.71875 L 159.09375 166.28125 z M 261.15625 166.28125 L 390.90625 256 L 261.15625 345.71875 L 261.15625 305.8125 C 298.40825 280.0595 333.1875 256 333.1875 256 C 333.1875 256 298.40825 231.9395 261.15625 206.1875 L 261.15625 166.28125 z M 220.1875 355.71875 L 234.75 355.71875 L 234.75 413.0625 L 245.96875 413.0625 L 245.96875 428.3125 L 234.75 428.3125 L 234.75 446.5 L 217.96875 446.5 L 217.96875 428.3125 L 180.9375 428.3125 L 180.9375 413.125 L 220.1875 355.71875 z M 251.8125 356.09375 L 273.15625 356.09375 L 291.3125 385.125 L 309.0625 356.09375 L 330.21875 356.09375 L 302.09375 400 L 333 446.5 L 311 446.5 L 290.9375 415.25 L 270.8125 446.5 L 248.9375 446.5 L 279.84375 399.3125 L 251.8125 356.09375 z M 217.96875 382.1875 L 197.15625 413.0625 L 217.96875 413.0625 L 217.96875 382.1875 z "
   id="fast-forward-6-icon" />
</svg>