<?xml version="1.0" encoding="UTF-8" standalone="no"?>
<!-- Generator: Adobe Illustrator 16.0.0, SVG Export Plug-In . SVG Version: 6.00 Build 0)  -->

<svg
   xmlns:dc="http://purl.org/dc/elements/1.1/"
   xmlns:cc="http://creativecommons.org/ns#"
   xmlns:rdf="http://www.w3.org/1999/02/22-rdf-syntax-ns#"
   xmlns:svg="http://www.w3.org/2000/svg"
   xmlns="http://www.w3.org/2000/svg"
   xmlns:sodipodi="http://sodipodi.sourceforge.net/DTD/sodipodi-0.dtd"
   xmlns:inkscape="http://www.inkscape.org/namespaces/inkscape"
   version="1.1"
   id="Capa_1"
   x="0px"
   y="0px"
   width="512"
   height="512"
   viewBox="0 0 512 512"
   xml:space="preserve"
   inkscape:version="0.48.2 r9819"
   sodipodi:docname="fullscreen.svg"><metadata
   id="metadata51"><rdf:RDF><cc:Work
       rdf:about=""><dc:format>image/svg+xml</dc:format><dc:type
         rdf:resource="http://purl.org/dc/dcmitype/StillImage" /><dc:title></dc:title></cc:Work></rdf:RDF></metadata><defs
   id="defs49" /><sodipodi:namedview
   pagecolor="#ffffff"
   bordercolor="#666666"
   borderopacity="1"
   objecttolerance="10"
   gridtolerance="10"
   guidetolerance="10"
   inkscape:pageopacity="0"
   inkscape:pageshadow="2"
   inkscape:window-width="1276"
   inkscape:window-height="756"
   id="namedview47"
   showgrid="false"
   inkscape:zoom="0.67045455"
   inkscape:cx="341.25558"
   inkscape:cy="341.25558"
   inkscape:window-x="4"
   inkscape:window-y="0"
   inkscape:window-maximized="1"
   inkscape:current-layer="Capa_1" />
<g
   id="g3"
   transform="matrix(20.363639,0,0,20.363639,32,32)"
   style="fill:#cccccc">
	<g
   id="g5"
   style="fill:#cccccc">
		<path
   d="M 4,18 H 18 V 4 H 4 V 18 z M 6,6 H 16 V 16 H 6 V 6 z"
   id="path7"
   inkscape:connector-curvature="0"
   style="fill:#cccccc" />
		<polygon
   points="6,20 2,20 2,16 0,16 0,22 6,22 "
   id="polygon9"
   style="fill:#cccccc" />
		<polygon
   points="0,6 2,6 2,2 6,2 6,0 0,0 "
   id="polygon11"
   style="fill:#cccccc" />
		<polygon
   points="22,16 20,16 20,20 16,20 16,22 22,22 "
   id="polygon13"
   style="fill:#cccccc" />
		<polygon
   points="22,6 22,0 16,0 16,2 20,2 20,6 "
   id="polygon15"
   style="fill:#cccccc" />
	</g>
</g>
<g
   id="g17"
   transform="translate(0,490)">
</g>
<g
   id="g19"
   transform="translate(0,490)">
</g>
<g
   id="g21"
   transform="translate(0,490)">
</g>
<g
   id="g23"
   transform="translate(0,490)">
</g>
<g
   id="g25"
   transform="translate(0,490)">
</g>
<g
   id="g27"
   transform="translate(0,490)">
</g>
<g
   id="g29"
   transform="translate(0,490)">
</g>
<g
   id="g31"
   transform="translate(0,490)">
</g>
<g
   id="g33"
   transform="translate(0,490)">
</g>
<g
   id="g35"
   transform="translate(0,490)">
</g>
<g
   id="g37"
   transform="translate(0,490)">
</g>
<g
   id="g39"
   transform="translate(0,490)">
</g>
<g
   id="g41"
   transform="translate(0,490)">
</g>
<g
   id="g43"
   transform="translate(0,490)">
</g>
<g
   id="g45"
   transform="translate(0,490)">
</g>
</svg>