<?xml version="1.0" encoding="UTF-8" standalone="no"?>
<!-- Created with Inkscape (http://www.inkscape.org/) -->

<svg
   xmlns:dc="http://purl.org/dc/elements/1.1/"
   xmlns:cc="http://creativecommons.org/ns#"
   xmlns:rdf="http://www.w3.org/1999/02/22-rdf-syntax-ns#"
   xmlns:svg="http://www.w3.org/2000/svg"
   xmlns="http://www.w3.org/2000/svg"
   xmlns:sodipodi="http://sodipodi.sourceforge.net/DTD/sodipodi-0.dtd"
   xmlns:inkscape="http://www.inkscape.org/namespaces/inkscape"
   width="256"
   height="256"
   id="svg2"
   version="1.1"
   inkscape:version="0.48.2 r9819"
   sodipodi:docname="icon.svg"
   inkscape:export-filename="/Users/ben/Dev/retrio/core/assets/graphics/logo-sq.png"
   inkscape:export-xdpi="180"
   inkscape:export-ydpi="180">
  <defs
     id="defs4">
    <inkscape:path-effect
       effect="spiro"
       id="path-effect3835"
       is_visible="true" />
    <inkscape:path-effect
       is_visible="true"
       id="path-effect3833"
       effect="spiro" />
    <inkscape:path-effect
       is_visible="true"
       id="path-effect3827"
       effect="spiro" />
    <inkscape:path-effect
       effect="spiro"
       id="path-effect3811"
       is_visible="true" />
    <inkscape:path-effect
       effect="spiro"
       id="path-effect3799"
       is_visible="true" />
    <filter
       id="filter3072"
       inkscape:label="Tritone"
       inkscape:menu="Color"
       inkscape:menu-tooltip="Create a tritone palette with hue selectable by flood"
       x="0"
       y="0"
       height="1"
       width="1"
       color-interpolation-filters="sRGB">
      <feColorMatrix
         id="feColorMatrix3074"
         in="SourceGraphic"
         result="r"
         type="matrix"
         values="1 0 0 0 0 1 0 0 0 0 1 0 0 0 0 0 0 0 0 1 " />
      <feColorMatrix
         id="feColorMatrix3076"
         in="SourceGraphic"
         result="g"
         type="matrix"
         values="0 1 0 0 0 0 1 0 0 0 0 1 0 0 0 0 0 0 0 1 " />
      <feColorMatrix
         id="feColorMatrix3078"
         in="SourceGraphic"
         result="b"
         type="matrix"
         values="0 0 1 0 0 0 0 1 0 0 0 0 1 0 0 0 0 0 0 1 " />
      <feBlend
         id="feBlend3080"
         in2="g"
         mode="darken"
         in="r"
         result="minrg" />
      <feBlend
         id="feBlend3082"
         in2="b"
         mode="darken"
         in="minrg"
         result="p" />
      <feBlend
         id="feBlend3084"
         in2="g"
         mode="lighten"
         in="r"
         result="maxrg" />
      <feBlend
         id="feBlend3086"
         in2="b"
         mode="lighten"
         in="maxrg"
         result="q" />
      <feComponentTransfer
         id="feComponentTransfer3088"
         in="q"
         result="q2">
        <feFuncR
           id="feFuncR3090"
           type="linear"
           slope="0" />
      </feComponentTransfer>
      <feBlend
         id="feBlend3092"
         in2="q2"
         mode="lighten"
         in="p"
         result="pq" />
      <feColorMatrix
         id="feColorMatrix3094"
         in="pq"
         result="qminp"
         type="matrix"
         values="-1 1 0 0 0 -1 1 0 0 0 -1 1 0 0 0 0 0 0 0 1 " />
      <feComponentTransfer
         id="feComponentTransfer3096"
         in="qminp"
         result="coefsq">
        <feFuncR
           id="feFuncR3098"
           type="table"
           tableValues="1 1 0 0 0 1 1" />
        <feFuncG
           id="feFuncG3100"
           type="table"
           tableValues="0 1 1 1 0 0 0" />
        <feFuncB
           id="feFuncB3102"
           type="table"
           tableValues="0 0 0 1 1 1 0" />
      </feComponentTransfer>
      <feFlood
         id="feFlood3104"
         flood-color="rgb(203,0,254)"
         result="result1" />
      <feComposite
         id="feComposite3106"
         in2="result1"
         in="qminp"
         result="qminpc"
         operator="arithmetic"
         k1="1"
         k2="0"
         k3="0"
         k4="0" />
      <feComposite
         id="feComposite3108"
         in2="qminpc"
         in="p"
         result="color"
         operator="arithmetic"
         k2="1"
         k3="1"
         k1="0"
         k4="0" />
      <feComposite
         id="feComposite3110"
         in2="SourceGraphic"
         in="color"
         operator="in" />
    </filter>
  </defs>
  <sodipodi:namedview
     id="base"
     pagecolor="#ffffff"
     bordercolor="#666666"
     borderopacity="1.0"
     inkscape:pageopacity="0.0"
     inkscape:pageshadow="2"
     inkscape:zoom="0.53982543"
     inkscape:cx="86.138744"
     inkscape:cy="133.95676"
     inkscape:document-units="px"
     inkscape:current-layer="layer1"
     showgrid="true"
     showguides="true"
     inkscape:guide-bbox="true"
     inkscape:window-width="1276"
     inkscape:window-height="756"
     inkscape:window-x="4"
     inkscape:window-y="0"
     inkscape:window-maximized="1">
    <inkscape:grid
       type="xygrid"
       id="grid3001"
       empspacing="8"
       visible="true"
       enabled="true"
       snapvisiblegridlinesonly="true"
       spacingx="4px"
       spacingy="4px" />
  </sodipodi:namedview>
  <metadata
     id="metadata7">
    <rdf:RDF>
      <cc:Work
         rdf:about="">
        <dc:format>image/svg+xml</dc:format>
        <dc:type
           rdf:resource="http://purl.org/dc/dcmitype/StillImage" />
        <dc:title></dc:title>
      </cc:Work>
    </rdf:RDF>
  </metadata>
  <g
     inkscape:label="Layer 1"
     inkscape:groupmode="layer"
     id="layer1"
     transform="translate(0,-796.36218)">
    <path
       style="fill:#000000;fill-opacity:1;stroke:#333333;stroke-width:0;stroke-linecap:square;stroke-linejoin:miter;stroke-miterlimit:4;stroke-opacity:1;stroke-dasharray:none;stroke-dashoffset:0"
       d="M 32.21875 69.59375 C 29.337379 69.59375 26.457856 70.698394 24.25 72.90625 L 8.3125 88.84375 C 3.896789 93.259461 3.896789 100.36554 8.3125 104.78125 L 32.25 128.6875 L 8.3125 152.625 C 3.896789 157.04071 3.896789 164.14679 8.3125 168.5625 L 24.25 184.5 C 28.665711 188.91571 35.771789 188.91571 40.1875 184.5 L 64.125 160.5625 L 88.03125 184.5 C 92.446961 188.91571 99.553039 188.91571 103.96875 184.5 L 119.90625 168.5625 C 124.32196 164.14679 124.32196 157.04071 119.90625 152.625 L 96 128.6875 L 119.90625 104.78125 C 124.32196 100.36554 124.32196 93.259461 119.90625 88.84375 L 103.96875 72.90625 C 99.553039 68.490539 92.446961 68.490539 88.03125 72.90625 L 64.125 96.8125 L 40.1875 72.90625 C 37.979644 70.698394 35.100121 69.59375 32.21875 69.59375 z M 20.28125 84.875 L 44.1875 84.875 L 20.28125 108.78125 L 20.28125 84.875 z M 84.03125 84.875 L 107.9375 84.875 L 107.9375 108.78125 L 84.03125 84.875 z M 20.28125 148.625 L 44.1875 172.53125 L 20.28125 172.53125 L 20.28125 148.625 z M 107.9375 148.625 L 107.9375 172.53125 L 84.03125 172.53125 L 107.9375 148.625 z "
       transform="translate(0,796.36218)"
       id="rect3053" />
    <path
       style="fill:#000000;fill-opacity:1;stroke:none"
       d="M 188.875 71.65625 C 175.29698 71.657761 162.11675 76.539501 152.21875 86.4375 C 131.10302 107.55323 132.8352 143.49145 156.0625 166.71875 C 179.2898 189.94605 215.22802 191.64698 236.34375 170.53125 C 257.45948 149.41552 255.75855 113.4773 232.53125 90.25 C 220.19174 77.910494 204.26342 71.654537 188.875 71.65625 z M 173.71875 93.34375 C 175.71571 93.264333 177.74925 93.486778 179.78125 94.03125 C 190.61858 96.935103 197.0601 108.06892 194.15625 118.90625 C 191.2524 129.74358 180.11858 136.1851 169.28125 133.28125 C 158.44392 130.3774 152.0024 119.24358 154.90625 108.40625 C 157.26563 99.600922 165.06525 93.687889 173.71875 93.34375 z M 215.03125 124.25 C 217.02821 124.17058 219.06175 124.39303 221.09375 124.9375 C 231.93108 127.84135 238.3726 138.97517 235.46875 149.8125 C 232.5649 160.64983 221.39983 167.09135 210.5625 164.1875 C 199.72517 161.28365 193.3149 150.11858 196.21875 139.28125 C 198.57813 130.47592 206.37775 124.59414 215.03125 124.25 z "
       transform="translate(0,796.36218)"
       id="path3067" />
  </g>
</svg>
