<?xml version="1.0" encoding="UTF-8" standalone="no"?>
<!-- Created with Inkscape (http://www.inkscape.org/) -->

<svg
   xmlns:dc="http://purl.org/dc/elements/1.1/"
   xmlns:cc="http://creativecommons.org/ns#"
   xmlns:rdf="http://www.w3.org/1999/02/22-rdf-syntax-ns#"
   xmlns:svg="http://www.w3.org/2000/svg"
   xmlns="http://www.w3.org/2000/svg"
   xmlns:sodipodi="http://sodipodi.sourceforge.net/DTD/sodipodi-0.dtd"
   xmlns:inkscape="http://www.inkscape.org/namespaces/inkscape"
   width="256"
   height="256"
   id="svg2"
   version="1.1"
   inkscape:version="0.48.2 r9819"
   sodipodi:docname="logo-square.svg"
   inkscape:export-filename="/Users/ben/Dev/retrio/core/assets/graphics/logo-sq.png"
   inkscape:export-xdpi="180"
   inkscape:export-ydpi="180">
  <defs
     id="defs4">
    <inkscape:path-effect
       effect="spiro"
       id="path-effect3835"
       is_visible="true" />
    <inkscape:path-effect
       is_visible="true"
       id="path-effect3833"
       effect="spiro" />
    <inkscape:path-effect
       is_visible="true"
       id="path-effect3827"
       effect="spiro" />
    <inkscape:path-effect
       effect="spiro"
       id="path-effect3811"
       is_visible="true" />
    <inkscape:path-effect
       effect="spiro"
       id="path-effect3799"
       is_visible="true" />
    <filter
       id="filter3072"
       inkscape:label="Tritone"
       inkscape:menu="Color"
       inkscape:menu-tooltip="Create a tritone palette with hue selectable by flood"
       x="0"
       y="0"
       height="1"
       width="1"
       color-interpolation-filters="sRGB">
      <feColorMatrix
         id="feColorMatrix3074"
         in="SourceGraphic"
         result="r"
         type="matrix"
         values="1 0 0 0 0 1 0 0 0 0 1 0 0 0 0 0 0 0 0 1 " />
      <feColorMatrix
         id="feColorMatrix3076"
         in="SourceGraphic"
         result="g"
         type="matrix"
         values="0 1 0 0 0 0 1 0 0 0 0 1 0 0 0 0 0 0 0 1 " />
      <feColorMatrix
         id="feColorMatrix3078"
         in="SourceGraphic"
         result="b"
         type="matrix"
         values="0 0 1 0 0 0 0 1 0 0 0 0 1 0 0 0 0 0 0 1 " />
      <feBlend
         id="feBlend3080"
         in2="g"
         mode="darken"
         in="r"
         result="minrg" />
      <feBlend
         id="feBlend3082"
         in2="b"
         mode="darken"
         in="minrg"
         result="p" />
      <feBlend
         id="feBlend3084"
         in2="g"
         mode="lighten"
         in="r"
         result="maxrg" />
      <feBlend
         id="feBlend3086"
         in2="b"
         mode="lighten"
         in="maxrg"
         result="q" />
      <feComponentTransfer
         id="feComponentTransfer3088"
         in="q"
         result="q2">
        <feFuncR
           id="feFuncR3090"
           type="linear"
           slope="0" />
      </feComponentTransfer>
      <feBlend
         id="feBlend3092"
         in2="q2"
         mode="lighten"
         in="p"
         result="pq" />
      <feColorMatrix
         id="feColorMatrix3094"
         in="pq"
         result="qminp"
         type="matrix"
         values="-1 1 0 0 0 -1 1 0 0 0 -1 1 0 0 0 0 0 0 0 1 " />
      <feComponentTransfer
         id="feComponentTransfer3096"
         in="qminp"
         result="coefsq">
        <feFuncR
           id="feFuncR3098"
           type="table"
           tableValues="1 1 0 0 0 1 1" />
        <feFuncG
           id="feFuncG3100"
           type="table"
           tableValues="0 1 1 1 0 0 0" />
        <feFuncB
           id="feFuncB3102"
           type="table"
           tableValues="0 0 0 1 1 1 0" />
      </feComponentTransfer>
      <feFlood
         id="feFlood3104"
         flood-color="rgb(203,0,254)"
         result="result1" />
      <feComposite
         id="feComposite3106"
         in2="result1"
         in="qminp"
         result="qminpc"
         operator="arithmetic"
         k1="1"
         k2="0"
         k3="0"
         k4="0" />
      <feComposite
         id="feComposite3108"
         in2="qminpc"
         in="p"
         result="color"
         operator="arithmetic"
         k2="1"
         k3="1"
         k1="0"
         k4="0" />
      <feComposite
         id="feComposite3110"
         in2="SourceGraphic"
         in="color"
         operator="in" />
    </filter>
  </defs>
  <sodipodi:namedview
     id="base"
     pagecolor="#ffffff"
     bordercolor="#666666"
     borderopacity="1.0"
     inkscape:pageopacity="0.0"
     inkscape:pageshadow="2"
     inkscape:zoom="1.5268569"
     inkscape:cx="86.138744"
     inkscape:cy="133.95676"
     inkscape:document-units="px"
     inkscape:current-layer="layer1"
     showgrid="true"
     showguides="true"
     inkscape:guide-bbox="true"
     inkscape:window-width="1276"
     inkscape:window-height="756"
     inkscape:window-x="4"
     inkscape:window-y="0"
     inkscape:window-maximized="1">
    <inkscape:grid
       type="xygrid"
       id="grid3001"
       empspacing="8"
       visible="true"
       enabled="true"
       snapvisiblegridlinesonly="true"
       spacingx="4px"
       spacingy="4px" />
  </sodipodi:namedview>
  <metadata
     id="metadata7">
    <rdf:RDF>
      <cc:Work
         rdf:about="">
        <dc:format>image/svg+xml</dc:format>
        <dc:type
           rdf:resource="http://purl.org/dc/dcmitype/StillImage" />
        <dc:title></dc:title>
      </cc:Work>
    </rdf:RDF>
  </metadata>
  <g
     inkscape:label="Layer 1"
     inkscape:groupmode="layer"
     id="layer1"
     transform="translate(0,-796.36218)">
    <g
       id="g3503"
       transform="matrix(0.91565861,0,0,0.91565861,-3.3252684,-9.8484167)">
      <g
         transform="matrix(1.068828,0,0,1.068828,-79.87557,30.191768)"
         id="g3049">
        <g
           style="fill:#999999"
           id="g3054">
          <rect
             style="fill:#999999;fill-opacity:1;stroke:#333333;stroke-width:0;stroke-linecap:square;stroke-linejoin:miter;stroke-miterlimit:4;stroke-opacity:1;stroke-dasharray:none;stroke-dashoffset:0"
             id="rect3053"
             width="13.50109"
             height="40.503269"
             x="719.40717"
             y="564.60468"
             ry="3.3752725"
             transform="matrix(0.70710678,0.70710678,-0.70710678,0.70710678,0,0)" />
          <rect
             style="fill:#999999;fill-opacity:1;stroke:#333333;stroke-width:0;stroke-linecap:square;stroke-linejoin:miter;stroke-miterlimit:4;stroke-opacity:1;stroke-dasharray:none;stroke-dashoffset:0"
             id="rect3055"
             width="40.503269"
             height="13.50109"
             x="705.90607"
             y="578.10577"
             transform="matrix(0.70710678,0.70710678,-0.70710678,0.70710678,0,0)"
             ry="3.3752725" />
        </g>
        <path
           inkscape:connector-curvature="0"
           inkscape:original-d="m 113.04187,913.90017 0,7.16003 -7.16003,-7.16003 z"
           inkscape:path-effect="#path-effect3811"
           id="path3057"
           d="m 113.04187,913.90017 0,7.16003 -7.16003,-7.16003 7.16003,0"
           style="fill:#000000;fill-opacity:1;stroke:#333333;stroke-width:0;stroke-linecap:square;stroke-linejoin:miter;stroke-miterlimit:4;stroke-opacity:1;stroke-dasharray:none;stroke-dashoffset:0" />
        <path
           style="fill:#000000;fill-opacity:1;stroke:#333333;stroke-width:0;stroke-linecap:square;stroke-linejoin:miter;stroke-miterlimit:4;stroke-opacity:1;stroke-dasharray:none;stroke-dashoffset:0"
           d="m 86.788415,940.15363 -5e-6,-7.16003 7.160035,7.16003 -7.16003,0"
           id="path3059"
           inkscape:path-effect="#path-effect3827"
           inkscape:original-d="m 86.788415,940.15363 -5e-6,-7.16003 7.160035,7.16003 z"
           inkscape:connector-curvature="0" />
        <path
           style="fill:#000000;fill-opacity:1;stroke:#333333;stroke-width:0;stroke-linecap:square;stroke-linejoin:miter;stroke-miterlimit:4;stroke-opacity:1;stroke-dasharray:none;stroke-dashoffset:0"
           d="m 113.04187,940.15363 -7.16003,-10e-6 7.16003,-7.16003 0,7.16004"
           id="path3061"
           inkscape:path-effect="#path-effect3833"
           inkscape:original-d="m 113.04187,940.15363 -7.16003,-10e-6 7.16003,-7.16003 z"
           inkscape:connector-curvature="0" />
        <path
           inkscape:connector-curvature="0"
           inkscape:original-d="m 86.788415,913.90017 7.16003,0 -7.160033,7.16003 z"
           inkscape:path-effect="#path-effect3835"
           id="path3063"
           d="m 86.788415,913.90017 7.16003,0 -7.160033,7.16003 3e-6,-7.16003"
           style="fill:#000000;fill-opacity:1;stroke:#333333;stroke-width:0;stroke-linecap:square;stroke-linejoin:miter;stroke-miterlimit:4;stroke-opacity:1;stroke-dasharray:none;stroke-dashoffset:0" />
      </g>
      <g
         transform="matrix(1.068828,0,0,1.068828,-140.42996,32.329424)"
         id="g3065">
        <path
           transform="matrix(0.57242165,0.57242165,-0.57242165,0.57242165,162.35129,818.49285)"
           d="m 144,64 c 0,11.045695 -9.84974,20 -22,20 -12.15026,0 -22,-8.954305 -22,-20 0,-11.045695 9.84974,-20 22,-20 12.15026,0 22,8.954305 22,20 z"
           sodipodi:ry="20"
           sodipodi:rx="22"
           sodipodi:cy="64"
           sodipodi:cx="122"
           id="path3067"
           style="fill:#b3b3b3;fill-opacity:1;stroke:none"
           sodipodi:type="arc" />
        <path
           transform="matrix(0.36723333,0.09839986,-0.09839986,0.36723333,164.97862,895.02148)"
           d="m 96,48 c 0,8.836556 -7.163444,16 -16,16 -8.836556,0 -16,-7.163444 -16,-16 0,-8.836556 7.163444,-16 16,-16 8.836556,0 16,7.163444 16,16 z"
           sodipodi:ry="16"
           sodipodi:rx="16"
           sodipodi:cy="48"
           sodipodi:cx="80"
           id="path3069"
           style="fill:#c83737;fill-opacity:1;stroke:#333333;stroke-width:0;stroke-linecap:square;stroke-linejoin:miter;stroke-miterlimit:4;stroke-opacity:1;stroke-dasharray:none;stroke-dashoffset:0"
           sodipodi:type="arc" />
        <path
           sodipodi:type="arc"
           style="fill:#c83737;fill-opacity:1;stroke:#333333;stroke-width:0;stroke-linecap:square;stroke-linejoin:miter;stroke-miterlimit:4;stroke-opacity:1;stroke-dasharray:none;stroke-dashoffset:0"
           id="path3071"
           sodipodi:cx="80"
           sodipodi:cy="48"
           sodipodi:rx="16"
           sodipodi:ry="16"
           d="m 96,48 c 0,8.836556 -7.163444,16 -16,16 -8.836556,0 -16,-7.163444 -16,-16 0,-8.836556 7.163444,-16 16,-16 8.836556,0 16,7.163444 16,16 z"
           transform="matrix(0.36723333,0.09839987,-0.09839987,0.36723333,177.34795,904.27539)" />
      </g>
    </g>
    <g
       id="g3107"
       transform="matrix(1.1276705,0,0,1.1276705,-21.938423,-122.72552)">
      <g
         id="g3096">
        <path
           inkscape:connector-curvature="0"
           id="path3075"
           style="font-size:24px;font-style:normal;font-variant:normal;font-weight:normal;font-stretch:normal;line-height:125%;letter-spacing:0px;word-spacing:0px;fill:#000000;fill-opacity:1;stroke:none;font-family:MinstrelPosterWHG;-inkscape-font-specification:MinstrelPosterWHG"
           d="m 127.09205,939.99829 -7.29905,6.80993 -9.89509,-10.6852 -5.79409,0 0,7.18618 -9.895098,0 0,-29.00806 17.570378,0 c 3.61188,3e-5 6.58416,0.92809 8.91688,2.78417 2.45806,1.98156 3.68711,4.69048 3.68714,8.12677 -3e-5,3.36109 -1.19145,6.03239 -3.57427,8.0139 l 6.2832,6.77231 m -13.507,-14.78621 c -10e-6,-0.7023 -0.25084,-1.25412 -0.75248,-1.65545 -0.47658,-0.40131 -1.09111,-0.60197 -1.84357,-0.60199 l -6.88518,0 0,4.51488 6.88518,0 c 0.75246,10e-6 1.36699,-0.20065 1.84357,-0.60199 0.50164,-0.4013 0.75247,-0.95312 0.75248,-1.65545" />
        <path
           inkscape:connector-curvature="0"
           id="path3077"
           style="font-size:24px;font-style:normal;font-variant:normal;font-weight:normal;font-stretch:normal;line-height:125%;letter-spacing:0px;word-spacing:0px;fill:#000000;fill-opacity:1;stroke:none;font-family:MinstrelPosterWHG;-inkscape-font-specification:MinstrelPosterWHG"
           d="m 143.81706,934.31707 -6.43369,0 0,-6.05745 6.43369,0 0,6.05745 m 3.34853,8.99213 -19.18821,0 0,-24.07933 19.18821,0 0,7.44954 -10.91094,0 0,9.18025 10.91094,0 0,7.44954" />
        <path
           inkscape:connector-curvature="0"
           id="path3079"
           style="font-size:24px;font-style:normal;font-variant:normal;font-weight:normal;font-stretch:normal;line-height:125%;letter-spacing:0px;word-spacing:0px;fill:#000000;fill-opacity:1;stroke:none;font-family:MinstrelPosterWHG;-inkscape-font-specification:MinstrelPosterWHG"
           d="m 165.64483,926.67941 -4.62775,0 0,16.59216 -8.31489,0 0,-16.59216 -4.62774,0 0,-7.44954 17.57038,0 0,7.44954" />
        <path
           inkscape:connector-curvature="0"
           id="path3081"
           style="font-size:24px;font-style:normal;font-variant:normal;font-weight:normal;font-stretch:normal;line-height:125%;letter-spacing:0px;word-spacing:0px;fill:#000000;fill-opacity:1;stroke:none;font-family:MinstrelPosterWHG;-inkscape-font-specification:MinstrelPosterWHG"
           d="m 193.68347,940.56265 -6.05745,5.64359 -8.23964,-8.87925 -4.81587,0 0,5.98221 -8.20202,0 0,-24.07933 14.59809,0 c 2.98482,4e-5 5.44292,0.7776 7.37429,2.33269 2.05676,1.65547 3.08515,3.90036 3.08517,6.73468 -2e-5,2.78419 -0.99078,5.004 -2.97229,6.65944 l 5.22972,5.60597 m -11.21193,-12.26541 c -2e-5,-1.25411 -0.72741,-1.88118 -2.18219,-1.88119 l -5.71884,0 0,3.76239 5.71884,0 c 1.45478,2e-5 2.18217,-0.62705 2.18219,-1.8812" />
      </g>
      <g
         id="g3102">
        <path
           inkscape:connector-curvature="0"
           id="path3083"
           style="font-size:24px;font-style:normal;font-variant:normal;font-weight:normal;font-stretch:normal;line-height:125%;letter-spacing:0px;word-spacing:0px;fill:#000000;fill-opacity:1;stroke:none;font-family:MinstrelPosterWHG;-inkscape-font-specification:MinstrelPosterWHG"
           d="m 205.35395,939.58443 c 0,1.20396 -0.53928,2.23235 -1.61783,3.08516 -1.05347,0.85281 -2.32014,1.27921 -3.80002,1.27921 -1.47987,0 -2.75909,-0.4264 -3.83764,-1.27921 -1.05347,-0.85281 -1.5802,-1.8812 -1.58019,-3.08516 -1e-5,-1.20397 0.52672,-2.23234 1.58019,-3.08517 1.07855,-0.85279 2.35777,-1.2792 3.83764,-1.27921 1.47988,10e-6 2.74655,0.42642 3.80002,1.27921 1.07855,0.85283 1.61783,1.8812 1.61783,3.08517" />
        <path
           inkscape:connector-curvature="0"
           id="path3085"
           style="font-size:24px;font-style:normal;font-variant:normal;font-weight:normal;font-stretch:normal;line-height:125%;letter-spacing:0px;word-spacing:0px;fill:#000000;fill-opacity:1;stroke:none;font-family:MinstrelPosterWHG;-inkscape-font-specification:MinstrelPosterWHG"
           d="m 214.69999,943.3092 -8.27727,0 0,-24.07933 8.27727,0 0,24.07933" />
        <path
           inkscape:connector-curvature="0"
           id="path3087"
           style="font-size:24px;font-style:normal;font-variant:normal;font-weight:normal;font-stretch:normal;line-height:125%;letter-spacing:0px;word-spacing:0px;fill:#000000;fill-opacity:1;stroke:none;font-family:MinstrelPosterWHG;-inkscape-font-specification:MinstrelPosterWHG"
           d="m 243.33532,931.23191 c -2e-5,3.637 -1.35448,6.74723 -4.06337,9.33074 -2.70896,2.58351 -5.95716,3.87526 -9.74462,3.87526 -3.81256,0 -7.0733,-1.29175 -9.78222,-3.87526 -2.70893,-2.58351 -4.06339,-5.69374 -4.06337,-9.33074 -2e-5,-3.63696 1.35444,-6.74721 4.06337,-9.33074 2.70892,-2.58348 5.96966,-3.87523 9.78222,-3.87526 3.81255,3e-5 7.06075,1.29178 9.74462,3.87526 2.70889,2.58353 4.06335,5.69378 4.06337,9.33074 m -9.59411,0.48911 c -1e-5,-1.1287 -0.41388,-2.09438 -1.24159,-2.89704 -0.82774,-0.80263 -1.81849,-1.20395 -2.97229,-1.20397 -1.1538,2e-5 -2.14456,0.40134 -2.97229,1.20397 -0.82773,0.80266 -1.24159,1.76834 -1.24159,2.89704 0,1.12874 0.41386,2.09442 1.24159,2.89705 0.82773,0.80266 1.81849,1.20398 2.97229,1.20396 1.1538,2e-5 2.14455,-0.4013 2.97229,-1.20396 0.82771,-0.80263 1.24158,-1.76831 1.24159,-2.89705" />
      </g>
    </g>
  </g>
</svg>
