<?xml version="1.0" encoding="UTF-8" standalone="no"?>
<!-- Generator: Adobe Illustrator 16.0.0, SVG Export Plug-In . SVG Version: 6.00 Build 0)  -->

<svg
   xmlns:dc="http://purl.org/dc/elements/1.1/"
   xmlns:cc="http://creativecommons.org/ns#"
   xmlns:rdf="http://www.w3.org/1999/02/22-rdf-syntax-ns#"
   xmlns:svg="http://www.w3.org/2000/svg"
   xmlns="http://www.w3.org/2000/svg"
   xmlns:sodipodi="http://sodipodi.sourceforge.net/DTD/sodipodi-0.dtd"
   xmlns:inkscape="http://www.inkscape.org/namespaces/inkscape"
   version="1.1"
   id="Capa_1"
   x="0px"
   y="0px"
   width="512"
   height="512"
   viewBox="0 0 511.99999 511.99999"
   xml:space="preserve"
   inkscape:version="0.48.2 r9819"
   sodipodi:docname="mute.svg"><metadata
   id="metadata45"><rdf:RDF><cc:Work
       rdf:about=""><dc:format>image/svg+xml</dc:format><dc:type
         rdf:resource="http://purl.org/dc/dcmitype/StillImage" /><dc:title></dc:title></cc:Work></rdf:RDF></metadata><defs
   id="defs43">
	
	
	
</defs><sodipodi:namedview
   pagecolor="#ffffff"
   bordercolor="#666666"
   borderopacity="1"
   objecttolerance="10"
   gridtolerance="10"
   guidetolerance="10"
   inkscape:pageopacity="0"
   inkscape:pageshadow="2"
   inkscape:window-width="1276"
   inkscape:window-height="756"
   id="namedview41"
   showgrid="false"
   inkscape:zoom="0.25585429"
   inkscape:cx="57.650002"
   inkscape:cy="317.83146"
   inkscape:window-x="4"
   inkscape:window-y="0"
   inkscape:window-maximized="1"
   inkscape:current-layer="Capa_1" />
<path
   style="fill:#cccccc"
   inkscape:connector-curvature="0"
   id="path5"
   d="M 213.92001,132.41748 143.94627,182.1986 H 80.04329 c -10.543988,0 -19.17088,8.19561 -19.17088,18.21253 v 126.88128 c 0,10.01996 8.626892,18.21253 19.17088,18.21253 h 63.90298 l 69.97374,49.78112 c 12.78047,9.10635 30.67329,0.6071 30.67329,-14.57009 v -233.7284 c 0,-15.17719 -18.21223,-23.67644 -30.67329,-14.57009 z" />
<g
   id="g11"
   transform="translate(0,396.69999)">
</g>
<g
   id="g13"
   transform="translate(0,396.69999)">
</g>
<g
   id="g15"
   transform="translate(0,396.69999)">
</g>
<g
   id="g17"
   transform="translate(0,396.69999)">
</g>
<g
   id="g19"
   transform="translate(0,396.69999)">
</g>
<g
   id="g21"
   transform="translate(0,396.69999)">
</g>
<g
   id="g23"
   transform="translate(0,396.69999)">
</g>
<g
   id="g25"
   transform="translate(0,396.69999)">
</g>
<g
   id="g27"
   transform="translate(0,396.69999)">
</g>
<g
   id="g29"
   transform="translate(0,396.69999)">
</g>
<g
   id="g31"
   transform="translate(0,396.69999)">
</g>
<g
   id="g33"
   transform="translate(0,396.69999)">
</g>
<g
   id="g35"
   transform="translate(0,396.69999)">
</g>
<g
   id="g37"
   transform="translate(0,396.69999)">
</g>
<g
   id="g39"
   transform="translate(0,396.69999)">
</g>
<path
   d="m 392.86717,271.44919 43.35593,-49.72535 c 3.60785,-4.13865 3.60785,-11.01565 0,-15.15445 l -8.75655,-10.04272 c -3.60784,-4.13868 -9.60493,-4.13868 -13.21416,0 l -43.35589,49.72452 -43.03757,-49.3602 c -3.60787,-4.1386 -9.60493,-4.1386 -13.21417,0 l -8.75655,10.0428 c -3.60784,4.13872 -3.60784,11.0166 0,15.1544 l 43.03896,49.3602 -43.03896,49.36015 c -3.60784,4.13865 -3.60784,11.01645 0,15.15525 l 8.75655,10.04192 c 3.60924,4.13868 9.6063,4.13868 13.21417,0 l 43.03757,-49.35932 43.03746,49.35932 c 3.60932,4.13868 9.60632,4.13868 13.21417,0 l 8.75655,-10.04192 c 3.60792,-4.1388 3.60792,-11.0166 0,-15.15525 l -43.03751,-49.35935 z"
   id="path3845"
   inkscape:connector-curvature="0"
   style="fill:#cccccc" /></svg>