<?xml version="1.0" encoding="UTF-8" standalone="no"?>
<!-- The icon can be used freely in both personal and commercial projects with no attribution required, but always appreciated. 
You may NOT sub-license, resell, rent, redistribute or otherwise transfer the icon without express written permission from iconmonstr.com -->

<svg
   xmlns:dc="http://purl.org/dc/elements/1.1/"
   xmlns:cc="http://creativecommons.org/ns#"
   xmlns:rdf="http://www.w3.org/1999/02/22-rdf-syntax-ns#"
   xmlns:svg="http://www.w3.org/2000/svg"
   xmlns="http://www.w3.org/2000/svg"
   xmlns:sodipodi="http://sodipodi.sourceforge.net/DTD/sodipodi-0.dtd"
   xmlns:inkscape="http://www.inkscape.org/namespaces/inkscape"
   version="1.1"
   x="0px"
   y="0px"
   width="512px"
   height="512px"
   viewBox="0 0 512 512"
   enable-background="new 0 0 512 512"
   xml:space="preserve"
   id="svg3030"
   inkscape:version="0.48.2 r9819"
   sodipodi:docname="save.svg"><metadata
   id="metadata3037"><rdf:RDF><cc:Work
       rdf:about=""><dc:format>image/svg+xml</dc:format><dc:type
         rdf:resource="http://purl.org/dc/dcmitype/StillImage" /><dc:title /></cc:Work></rdf:RDF></metadata><defs
   id="defs3035" /><sodipodi:namedview
   pagecolor="#ffffff"
   bordercolor="#666666"
   borderopacity="1"
   objecttolerance="10"
   gridtolerance="10"
   guidetolerance="10"
   inkscape:pageopacity="0"
   inkscape:pageshadow="2"
   inkscape:window-width="1276"
   inkscape:window-height="756"
   id="namedview3033"
   showgrid="false"
   inkscape:zoom="0.52539063"
   inkscape:cx="256"
   inkscape:cy="256"
   inkscape:window-x="4"
   inkscape:window-y="0"
   inkscape:window-maximized="1"
   inkscape:current-layer="svg3030" />
<path
   id="save-8-icon"
   d="M146.365,243.417h50.164v-43.222h118.939v43.222h50.166L255.999,353.243L146.365,243.417z   M196.529,123.862h118.939V93.028H196.529V123.862z M345.469,85.095v46.314c42.567,29.113,69.461,77.27,69.461,131.396  c0,42.453-16.531,82.363-46.549,112.381S298.452,421.735,256,421.735c-42.451,0-82.362-16.531-112.38-46.549  c-30.019-30.018-46.55-69.928-46.55-112.381c0-54,26.794-102.215,69.459-131.395V85.095  C101.604,117.849,57.07,185.122,57.07,262.806c0,109.867,89.064,198.93,198.93,198.93c109.867,0,198.93-89.062,198.93-198.93  C454.93,185.12,410.396,117.847,345.469,85.095z M315.469,180.195v-36.333H196.529v36.333H315.469z M315.469,73.028V50.265H196.529  v22.764H315.469z"
   style="fill:#cccccc" />
</svg>