<?xml version="1.0" encoding="UTF-8" standalone="no"?>
<!-- Generator: Adobe Illustrator 16.0.0, SVG Export Plug-In . SVG Version: 6.00 Build 0)  -->

<svg
   xmlns:dc="http://purl.org/dc/elements/1.1/"
   xmlns:cc="http://creativecommons.org/ns#"
   xmlns:rdf="http://www.w3.org/1999/02/22-rdf-syntax-ns#"
   xmlns:svg="http://www.w3.org/2000/svg"
   xmlns="http://www.w3.org/2000/svg"
   xmlns:sodipodi="http://sodipodi.sourceforge.net/DTD/sodipodi-0.dtd"
   xmlns:inkscape="http://www.inkscape.org/namespaces/inkscape"
   version="1.1"
   id="Capa_1"
   x="0px"
   y="0px"
   width="512"
   height="512"
   viewBox="0 0 511.99999 511.99999"
   xml:space="preserve"
   inkscape:version="0.48.2 r9819"
   sodipodi:docname="sound.svg"><metadata
   id="metadata45"><rdf:RDF><cc:Work
       rdf:about=""><dc:format>image/svg+xml</dc:format><dc:type
         rdf:resource="http://purl.org/dc/dcmitype/StillImage" /><dc:title /></cc:Work></rdf:RDF></metadata><defs
   id="defs43">
	
	
	
</defs><sodipodi:namedview
   pagecolor="#ffffff"
   bordercolor="#666666"
   borderopacity="1"
   objecttolerance="10"
   gridtolerance="10"
   guidetolerance="10"
   inkscape:pageopacity="0"
   inkscape:pageshadow="2"
   inkscape:window-width="1276"
   inkscape:window-height="756"
   id="namedview41"
   showgrid="false"
   inkscape:zoom="0.3618326"
   inkscape:cx="57.650002"
   inkscape:cy="538.92818"
   inkscape:window-x="4"
   inkscape:window-y="0"
   inkscape:window-maximized="1"
   inkscape:current-layer="Capa_1" />
<path
   style="fill:#cccccc"
   inkscape:connector-curvature="0"
   id="path5"
   d="M 213.92001,132.41748 143.94627,182.1986 H 80.04329 c -10.543988,0 -19.17088,8.19561 -19.17088,18.21253 v 126.88128 c 0,10.01996 8.626892,18.21253 19.17088,18.21253 h 63.90298 l 69.97374,49.78112 c 12.78047,9.10635 30.67329,0.6071 30.67329,-14.57009 v -233.7284 c 0,-15.17719 -18.21223,-23.67644 -30.67329,-14.57009 z" /><path
   style="fill:#cccccc"
   inkscape:connector-curvature="0"
   id="path7"
   d="m 328.89488,156.67354 c -9.09346,-8.63889 -24.24929,-8.63889 -33.33937,0 -9.09346,8.6389 -9.09346,23.03716 0,31.67605 43.78343,41.59493 43.78343,109.10975 0,150.70458 -9.09346,8.63899 -9.09346,23.03715 0,31.67293 4.71177,4.47941 10.77414,6.39923 16.49958,6.39923 5.72554,0 12.12802,-2.2366 16.50306,-6.71917 62.64391,-58.55278 62.64391,-154.54093 0.33673,-213.73362 z" /><path
   style="fill:#cccccc"
   inkscape:connector-curvature="0"
   id="path9"
   d="m 355.16496,106.43973 c -9.09008,8.63898 -9.09008,23.03714 0,31.67614 35.36354,33.59577 54.90106,78.07033 54.90106,125.7444 0,47.67416 -19.53752,92.14862 -54.90106,125.7445 -9.09008,8.6389 -9.09008,23.03716 0,31.67605 4.71515,4.47629 10.77742,6.71918 16.50296,6.71918 6.06237,0 12.12464,-2.23969 16.50296,-6.39921 44.12026,-41.9148 68.70291,-97.90789 68.70291,-157.42055 0,-59.51266 -24.24929,-115.18578 -68.70291,-157.42055 -8.75663,-8.958871 -23.57563,-8.958871 -33.00592,-0.31996 z" />
<g
   id="g11"
   transform="translate(0,396.69999)">
</g>
<g
   id="g13"
   transform="translate(0,396.69999)">
</g>
<g
   id="g15"
   transform="translate(0,396.69999)">
</g>
<g
   id="g17"
   transform="translate(0,396.69999)">
</g>
<g
   id="g19"
   transform="translate(0,396.69999)">
</g>
<g
   id="g21"
   transform="translate(0,396.69999)">
</g>
<g
   id="g23"
   transform="translate(0,396.69999)">
</g>
<g
   id="g25"
   transform="translate(0,396.69999)">
</g>
<g
   id="g27"
   transform="translate(0,396.69999)">
</g>
<g
   id="g29"
   transform="translate(0,396.69999)">
</g>
<g
   id="g31"
   transform="translate(0,396.69999)">
</g>
<g
   id="g33"
   transform="translate(0,396.69999)">
</g>
<g
   id="g35"
   transform="translate(0,396.69999)">
</g>
<g
   id="g37"
   transform="translate(0,396.69999)">
</g>
<g
   id="g39"
   transform="translate(0,396.69999)">
</g>
</svg>