<?xml version="1.0" encoding="UTF-8" standalone="no"?>
<!-- The icon can be used freely in both personal and commercial projects with no attribution required, but always appreciated. 
You may NOT sub-license, resell, rent, redistribute or otherwise transfer the icon without express written permission from iconmonstr.com -->

<svg
   xmlns:dc="http://purl.org/dc/elements/1.1/"
   xmlns:cc="http://creativecommons.org/ns#"
   xmlns:rdf="http://www.w3.org/1999/02/22-rdf-syntax-ns#"
   xmlns:svg="http://www.w3.org/2000/svg"
   xmlns="http://www.w3.org/2000/svg"
   xmlns:sodipodi="http://sodipodi.sourceforge.net/DTD/sodipodi-0.dtd"
   xmlns:inkscape="http://www.inkscape.org/namespaces/inkscape"
   version="1.1"
   x="0px"
   y="0px"
   width="512px"
   height="512px"
   viewBox="0 0 512 512"
   enable-background="new 0 0 512 512"
   xml:space="preserve"
   id="svg3293"
   inkscape:version="0.48.2 r9819"
   sodipodi:docname="cloud-upload.svg"><metadata
   id="metadata3300"><rdf:RDF><cc:Work
       rdf:about=""><dc:format>image/svg+xml</dc:format><dc:type
         rdf:resource="http://purl.org/dc/dcmitype/StillImage" /><dc:title /></cc:Work></rdf:RDF></metadata><defs
   id="defs3298" /><sodipodi:namedview
   pagecolor="#ffffff"
   bordercolor="#666666"
   borderopacity="1"
   objecttolerance="10"
   gridtolerance="10"
   guidetolerance="10"
   inkscape:pageopacity="0"
   inkscape:pageshadow="2"
   inkscape:window-width="640"
   inkscape:window-height="480"
   id="namedview3296"
   showgrid="false"
   inkscape:zoom="0.4609375"
   inkscape:cx="256"
   inkscape:cy="256"
   inkscape:window-x="0"
   inkscape:window-y="0"
   inkscape:window-maximized="0"
   inkscape:current-layer="svg3293" />

<path
   id="upload-11-icon"
   d="M461.4,299.303c0,50.852-41.371,92.221-92.221,92.221h-36.847v-40h36.847   c28.795,0,52.221-23.426,52.221-52.221c0-35.412-23.816-53.746-49.18-53.844c-1.303-58.902-40.637-84.982-78.664-84.982   c-50.308,0-70.974,38.08-76.131,52.662c-20.51-29.582-76.177-7.248-64.641,32.348C118.25,239.225,90.6,265.225,90.6,299.303   c0,28.795,23.427,52.221,53.222,52.221h50.512v40h-50.512c-51.852,0-93.222-41.369-93.222-92.221   c0-41.408,27.561-77.127,66.153-88.463c10.854-36.998,49.784-58.686,86.933-48.779c22.24-26.299,54.773-41.584,89.871-41.584   c57.115,0,105.365,40.816,115.781,95.777C440.941,231.457,461.4,263.389,461.4,299.303z M189.752,315.263h33.84v76.261h79.486   v-76.261h33.84l-73.582-73.708L189.752,315.263z"
   style="fill:#cccccc" />

</svg>