<?xml version="1.0" encoding="UTF-8" standalone="no"?>
<!-- License Agreement at http://iconmonstr.com/license/ -->

<svg
   xmlns:dc="http://purl.org/dc/elements/1.1/"
   xmlns:cc="http://creativecommons.org/ns#"
   xmlns:rdf="http://www.w3.org/1999/02/22-rdf-syntax-ns#"
   xmlns:svg="http://www.w3.org/2000/svg"
   xmlns="http://www.w3.org/2000/svg"
   xmlns:sodipodi="http://sodipodi.sourceforge.net/DTD/sodipodi-0.dtd"
   xmlns:inkscape="http://www.inkscape.org/namespaces/inkscape"
   version="1.1"
   x="0px"
   y="0px"
   width="512px"
   height="512px"
   viewBox="0 0 512 512"
   enable-background="new 0 0 512 512"
   xml:space="preserve"
   id="svg3470"
   inkscape:version="0.48.2 r9819"
   sodipodi:docname="ff2x.svg"><metadata
   id="metadata3477"><rdf:RDF><cc:Work
       rdf:about=""><dc:format>image/svg+xml</dc:format><dc:type
         rdf:resource="http://purl.org/dc/dcmitype/StillImage" /><dc:title /></cc:Work></rdf:RDF></metadata><defs
   id="defs3475" /><sodipodi:namedview
   pagecolor="#ffffff"
   bordercolor="#666666"
   borderopacity="1"
   objecttolerance="10"
   gridtolerance="10"
   guidetolerance="10"
   inkscape:pageopacity="0"
   inkscape:pageshadow="2"
   inkscape:window-width="1276"
   inkscape:window-height="756"
   id="namedview3473"
   showgrid="false"
   inkscape:zoom="1"
   inkscape:cx="256"
   inkscape:cy="256"
   inkscape:window-x="4"
   inkscape:window-y="0"
   inkscape:window-maximized="1"
   inkscape:current-layer="svg3470" />
<path
   style="fill:#cccccc"
   d="M 256 50 C 142.229 50 50 142.229 50 256 C 50 369.771 142.229 462 256 462 C 369.771 462 462 369.771 462 256 C 462 142.229 369.771 50 256 50 z M 159.09375 166.28125 L 288.875 256 L 159.09375 345.71875 L 159.09375 166.28125 z M 261.15625 166.28125 L 390.90625 256 L 261.15625 345.71875 L 261.15625 305.8125 C 298.40825 280.0595 333.1875 256 333.1875 256 C 333.1875 256 298.40825 231.9395 261.15625 206.1875 L 261.15625 166.28125 z M 213.65625 355.65625 C 222.59278 355.65634 229.61209 358.05675 234.71875 362.875 C 239.8253 367.69341 242.37494 373.67809 242.375 380.84375 C 242.37494 384.92086 241.63875 388.8249 240.15625 392.53125 C 238.71481 396.19653 236.42098 400.02668 233.25 404.0625 C 231.14965 406.73939 227.3522 410.60079 221.875 415.625 C 216.39771 420.64927 212.92003 423.97773 211.4375 425.625 C 209.99609 427.27231 208.81223 428.87259 207.90625 430.4375 L 242.375 430.4375 L 242.375 446.5625 L 181.53125 446.5625 C 182.19016 440.46752 184.17416 434.71733 187.46875 429.28125 C 190.76333 423.80402 197.28095 416.55022 207 407.53125 C 214.82461 400.24202 219.60412 395.31329 221.375 392.71875 C 223.76353 389.13594 224.9687 385.59431 224.96875 382.09375 C 224.9687 378.22268 223.91275 375.24669 221.8125 373.1875 C 219.75334 371.08728 216.88394 370.03133 213.21875 370.03125 C 209.59467 370.03133 206.7352 371.12991 204.59375 373.3125 C 202.45224 375.49524 201.20444 379.12214 200.875 384.1875 L 183.5625 382.46875 C 184.59205 372.91452 187.84517 366.0345 193.28125 361.875 C 198.7173 357.71567 205.50212 355.65634 213.65625 355.65625 z M 251.71875 356 L 273.09375 356 L 291.25 385.125 L 309.03125 356 L 330.21875 356 L 302.0625 400 L 333 446.5625 L 310.96875 446.5625 L 290.875 415.25 L 270.75 446.5625 L 248.8125 446.5625 L 279.75 399.3125 L 251.71875 356 z "
   id="fast-forward-6-icon" />
</svg>