<?xml version="1.0" encoding="UTF-8" standalone="no"?>
<!-- The icon can be used freely in both personal and commercial projects with no attribution required, but always appreciated. 
You may NOT sub-license, resell, rent, redistribute or otherwise transfer the icon without express written permission from iconmonstr.com -->

<svg
   xmlns:dc="http://purl.org/dc/elements/1.1/"
   xmlns:cc="http://creativecommons.org/ns#"
   xmlns:rdf="http://www.w3.org/1999/02/22-rdf-syntax-ns#"
   xmlns:svg="http://www.w3.org/2000/svg"
   xmlns="http://www.w3.org/2000/svg"
   xmlns:sodipodi="http://sodipodi.sourceforge.net/DTD/sodipodi-0.dtd"
   xmlns:inkscape="http://www.inkscape.org/namespaces/inkscape"
   version="1.1"
   x="0px"
   y="0px"
   width="512px"
   height="512px"
   viewBox="0 0 512 512"
   enable-background="new 0 0 512 512"
   xml:space="preserve"
   id="svg3030"
   inkscape:version="0.48.2 r9819"
   sodipodi:docname="load.svg"><sodipodi:namedview
   pagecolor="#ffffff"
   bordercolor="#666666"
   borderopacity="1"
   objecttolerance="10"
   gridtolerance="10"
   guidetolerance="10"
   inkscape:pageopacity="0"
   inkscape:pageshadow="2"
   inkscape:window-width="1276"
   inkscape:window-height="756"
   id="namedview3033"
   showgrid="false"
   inkscape:zoom="0.52539063"
   inkscape:cx="256"
   inkscape:cy="256"
   inkscape:window-x="4"
   inkscape:window-y="0"
   inkscape:window-maximized="1"
   inkscape:current-layer="svg3030" /><metadata
   id="metadata3037"><rdf:RDF><cc:Work
       rdf:about=""><dc:format>image/svg+xml</dc:format><dc:type
         rdf:resource="http://purl.org/dc/dcmitype/StillImage" /><dc:title /></cc:Work></rdf:RDF></metadata><defs
   id="defs3035" />
<path
   id="save-8-icon"
   d="m 366.39885,270.14408 -50.16402,1e-5 -2e-5,43.22201 -118.93899,-3e-5 -2e-5,-43.22197 -50.16599,-3e-5 109.635,-109.82602 109.63404,109.82603 z m -50.16406,119.55502 -118.93899,-10e-6 2e-5,30.834 118.93902,0 -5e-5,-30.83399 z m -148.93998,38.767 10e-6,-46.31399 C 124.72778,353.03909 97.833792,304.88208 97.833822,250.75608 c 1.6e-5,-42.453 16.530978,-82.36297 46.549028,-112.38099 30.01798,-30.01799 69.92895,-46.54899 112.38091,-46.549015 42.451,6e-6 82.36206,16.531055 112.38004,46.549045 30.01899,30.01796 46.55002,69.92801 46.55002,112.38098 3e-5,53.99999 -26.79399,102.21498 -69.45901,131.39499 l -10e-6,46.31498 c 64.92504,-32.754 109.45902,-100.02694 109.45899,-177.71103 3e-5,-109.86697 -89.064,-198.929957 -198.92999,-198.92994 -109.86701,-1.8e-5 -198.929977,89.062 -198.929981,198.92999 -3.4e-5,77.686 44.533951,144.95899 109.460991,177.71101 z m 30,-95.10001 -1e-5,36.33298 118.93999,0 3e-5,-36.33302 -118.94001,4e-5 z m -1e-5,107.16697 -2e-5,22.76304 118.94003,10e-6 0,-22.76398 -118.93998,-5e-5 z"
   inkscape:connector-curvature="0"
   style="fill:#cccccc" />
</svg>